<?xml version='1.0' encoding='UTF-8' standalone='no'?>
<svg baseProfile="tiny" height="8.46667mm" version="1.2" viewBox="0 0 80 80" width="8.46667mm" xmlns="http://www.w3.org/2000/svg" xmlns:xlink="http://www.w3.org/1999/xlink">
    <style id="current-color-scheme" type="text/css">.ColorScheme-Text {color:#da0016;}</style>
    <title>Qt SVG Document</title>
    <desc>Auto-generated by klassy-settings</desc>
    <defs/>
    <g fill="none" fill-rule="evenodd" stroke="black" stroke-linecap="square" stroke-linejoin="bevel" stroke-width="1">
        <g fill="#da0016" fill-opacity="1" font-family="Noto Sans" font-size="33.3333" font-style="normal" font-weight="400" stroke="none" transform="matrix(4.44444,0,0,4.44444,0,0)">
            <path d="M6.60104,5.39896 L12.601,11.399 C12.933,11.7309 12.933,12.2691 12.601,12.601 C12.2691,12.933 11.7309,12.933 11.399,12.601 L5.39896,6.60104 C5.06701,6.2691 5.06701,5.7309 5.39896,5.39896 C5.7309,5.06701 6.2691,5.06701 6.60104,5.39896 M12.601,6.60104 L6.60104,12.601 C6.2691,12.933 5.7309,12.933 5.39896,12.601 C5.06701,12.2691 5.06701,11.7309 5.39896,11.399 L11.399,5.39896 C11.7309,5.06701 12.2691,5.06701 12.601,5.39896 C12.933,5.7309 12.933,6.2691 12.601,6.60104 " fill-rule="nonzero" vector-effect="none"/>
        </g>
    </g>
</svg>
